<svg version="1.1" id="Layer_1" xmlns="http://www.w3.org/2000/svg" xmlns:xlink="http://www.w3.org/1999/xlink" x="0px" y="0px"
	 width="100%" viewBox="0 0 1024 1024" enable-background="new 0 0 1024 1024" xml:space="preserve">
<path fill="#000000" opacity="1.000000" stroke="none" 
	d="
M1.000000,995.467957 
	C3.426838,995.796448 5.936109,995.648193 8.432379,995.648132 
	C34.091122,995.647827 59.750484,995.737854 85.408028,995.562378 
	C89.957283,995.531311 92.299568,996.315369 91.461197,1001.551331 
	C90.944237,1004.780029 91.365448,1008.158875 91.365448,1011.232422 
	C89.251617,1012.910645 87.175797,1012.318848 85.248627,1012.321289 
	C60.089771,1012.352966 34.930836,1012.316223 9.771981,1012.347290 
	C7.120357,1012.350586 4.469127,1012.674683 1.408857,1012.924927 
	C1.000000,1007.311951 1.000000,1001.623962 1.000000,995.467957 
z"/>
<path fill="#000000" opacity="1.000000" stroke="none" 
	d="
M481.999939,786.277710 
	C428.504547,786.275024 375.508148,786.469360 322.514221,786.192749 
	C292.536255,786.036255 268.853271,773.418518 252.397461,748.117676 
	C243.530670,734.485107 239.723801,719.265808 239.720261,703.090820 
	C239.693008,578.435059 239.697937,453.779327 239.694611,329.123566 
	C239.693985,305.625610 239.717041,282.127655 239.677338,258.629791 
	C239.673782,256.517792 240.166031,254.305084 238.994705,252.216309 
	C236.466797,251.391098 235.413300,253.526688 234.110550,254.804871 
	C227.092484,261.690491 220.198380,268.702209 213.203720,275.611969 
	C204.378815,284.329712 191.084183,284.727448 182.660965,276.591339 
	C174.046509,268.270508 173.843246,254.676987 182.723389,245.687866 
	C203.684616,224.469376 224.782150,203.383438 246.002335,182.423889 
	C254.806915,173.727432 267.637054,173.847214 276.490509,182.615494 
	C297.803009,203.722977 318.997650,224.950500 340.122589,246.245911 
	C348.463531,254.654160 348.229950,267.996399 339.940369,276.434265 
	C332.149017,284.364990 318.460388,284.597778 310.088104,276.619385 
	C302.369812,269.264221 294.979218,261.565887 287.394440,254.069153 
	C286.140778,252.830048 285.158844,251.125137 283.065887,250.854797 
	C281.865112,252.715561 282.363098,254.770645 282.362793,256.706207 
	C282.339050,405.693146 282.334381,554.680115 282.362915,703.667053 
	C282.367249,726.198669 299.740540,743.632019 322.279358,743.637085 
	C470.933014,743.670593 619.586670,743.654480 768.240295,743.628235 
	C770.173157,743.627930 772.276367,744.153503 774.168579,742.358948 
	C773.406128,738.930481 769.987183,737.547424 768.138062,734.968994 
	C761.224731,725.329468 752.140503,722.797729 740.253479,723.037354 
	C699.940063,723.849731 659.600159,723.357422 619.270386,723.340576 
	C612.722778,723.337830 612.692139,723.283936 612.687622,716.684814 
	C612.672668,694.853394 612.673950,673.021973 612.686462,651.190552 
	C612.690186,644.695374 612.716370,644.652954 619.411377,644.652222 
	C679.405823,644.645813 739.400330,644.653381 799.394775,644.662964 
	C806.913574,644.664124 806.924744,644.680542 806.927429,637.264709 
	C806.972534,510.109283 806.887756,382.953522 807.185669,255.798691 
	C807.233887,235.213684 790.710083,218.783203 769.267639,218.836319 
	C630.780640,219.179306 492.292358,219.022690 353.804504,219.000961 
	C350.650452,219.000458 347.459991,218.900406 344.348999,218.431885 
	C333.436646,216.788467 326.070251,208.214264 326.047882,197.382629 
	C326.026489,187.027115 333.515686,178.296326 344.031250,176.585571 
	C346.646271,176.160141 349.325897,175.947937 351.975861,175.947357 
	C491.130341,175.917542 630.284790,175.901749 769.439270,175.933136 
	C809.677063,175.942215 841.097107,201.803848 848.694397,241.209122 
	C849.664429,246.240570 850.038208,251.460907 850.041016,256.594086 
	C850.110229,383.249603 850.092346,509.905182 850.089172,636.560730 
	C850.088867,649.724915 850.196960,662.890442 850.049194,676.052979 
	C849.896057,689.688721 842.962830,698.000488 830.521301,699.726013 
	C825.914612,700.364807 821.389404,699.408203 817.607483,696.930115 
	C814.157959,694.669861 810.435608,694.405457 806.726257,694.119812 
	C800.755798,693.660217 797.826843,698.059265 800.128235,703.607361 
	C801.491272,706.893250 803.785095,709.549194 806.263794,712.044434 
	C818.231873,724.091553 830.186951,736.151611 842.181763,748.172058 
	C852.615784,758.628235 852.669739,771.124817 842.195557,781.609192 
	C821.820374,802.004333 801.414062,822.368347 781.023499,842.748108 
	C774.591125,849.176941 767.042969,851.567078 758.217957,848.821228 
	C742.651733,843.977966 738.561096,824.549255 750.553772,812.371643 
	C757.334900,805.485901 764.268616,798.750610 771.086243,791.900391 
	C772.331177,790.649475 774.049011,789.632812 774.052429,786.277649 
	C676.845093,786.277649 579.672485,786.277649 481.999939,786.277710 
M639.764038,680.744934 
	C644.006348,682.038330 647.671570,681.072754 649.205200,676.806396 
	C650.835632,672.270813 647.370056,670.255371 643.839966,668.664307 
	C642.931335,668.254700 641.995667,667.874573 641.157837,667.345581 
	C640.010010,666.620789 638.927917,665.737915 639.392212,664.132812 
	C639.799438,662.724976 640.814758,662.011658 642.258667,661.701355 
	C643.792358,661.371704 645.628784,662.310913 646.898071,660.685852 
	C643.496643,657.930298 639.560364,658.323303 637.339966,661.783813 
	C635.057495,665.340942 636.779358,667.721802 639.986450,669.480774 
	C641.007263,670.040771 642.073364,670.517456 643.105225,671.058044 
	C645.158325,672.133728 646.894287,673.561340 646.010254,676.142822 
	C645.079956,678.859253 642.633057,678.252258 640.493713,678.192383 
	C639.305298,678.159058 638.108276,676.634277 636.906616,678.144287 
	C636.828674,679.745483 638.199219,679.912781 639.764038,680.744934 
M709.002808,677.265625 
	C710.020386,677.816101 710.640564,679.499329 712.648071,678.247742 
	C710.829102,675.489563 707.805847,673.134155 709.573242,669.337524 
	C707.716858,669.084351 706.510986,671.175659 705.328735,669.955139 
	C703.208862,666.597351 706.113342,662.718201 703.401672,659.681763 
	C700.594116,663.372864 700.490479,676.792297 703.086731,680.029663 
	C705.607544,675.605652 705.607544,675.605652 709.002808,677.265625 
M666.688965,670.141296 
	C665.006409,674.979919 666.477966,678.627319 670.941589,680.681946 
	C674.362915,682.256775 678.450623,680.632507 680.530640,676.871704 
	C682.453552,673.394897 681.523743,669.662170 677.833313,667.502991 
	C673.785217,665.134521 670.227722,666.490967 666.688965,670.141296 
M693.920410,666.566589 
	C688.693909,665.941284 685.189209,667.982483 684.362549,672.133362 
	C683.611877,675.902405 686.069275,679.832825 689.971741,680.999573 
	C692.867188,681.865356 695.189514,681.347961 697.388245,677.787903 
	C695.597717,677.919006 694.963806,677.909973 694.351074,678.019531 
	C691.122620,678.596558 687.923279,678.444031 687.302917,674.547119 
	C686.692139,670.710327 689.113159,668.819641 692.865845,668.406616 
	C693.438354,668.343628 693.911987,667.382996 693.920410,666.566589 
M653.276184,668.510132 
	C656.497620,670.163818 654.970825,673.198059 655.233398,675.636963 
	C655.669250,679.686523 657.745544,680.981689 661.506775,680.345947 
	C657.693115,677.628845 657.774353,673.529968 658.841370,670.317261 
	C660.049622,666.679443 658.446655,664.935059 655.999451,662.453552 
	C656.076660,665.208740 653.146057,665.811646 653.276184,668.510132 
M629.689453,667.797668 
	C629.331055,672.017395 628.393677,676.309631 631.201172,680.201965 
	C633.261780,676.031677 632.860046,671.717041 632.188477,667.440979 
	C632.037842,666.481873 630.898254,666.720215 629.689453,667.797668 
M775.141357,698.764771 
	C777.749084,701.963501 774.166382,701.488770 772.969788,702.174683 
	C771.961975,702.752197 770.658875,703.007935 770.535095,704.312134 
	C770.370300,706.049561 771.438721,706.989258 773.795349,707.389587 
	C772.935669,705.948608 770.659485,704.856323 772.652039,703.396545 
	C776.508850,700.570862 776.276611,705.910522 778.525574,706.758911 
	C778.525574,704.605530 778.758972,702.776367 778.468262,701.034668 
	C778.077576,698.693604 776.546326,697.865417 775.141357,698.764771 
M741.730713,706.129639 
	C741.342957,702.800415 741.122192,699.541626 745.537109,697.709717 
	C742.423096,699.057800 741.185242,697.045105 739.663818,695.202026 
	C740.001953,699.147888 737.115479,703.297791 741.730713,706.129639 
M783.301758,696.972717 
	C783.337280,700.414856 783.407837,703.847595 785.755310,706.712891 
	C784.799622,703.546448 783.684143,700.469177 787.228271,697.829529 
	C785.693665,697.692871 785.321472,695.395447 783.301758,696.972717 
z"/>
<path fill="#000000" opacity="1.000000" stroke="none" 
	d="
M583.635071,587.999878 
	C583.638062,550.507507 583.712219,513.514893 583.599182,476.522888 
	C583.568542,466.500793 581.106934,457.136536 574.695496,449.042725 
	C564.417542,436.068024 539.481567,429.555847 525.353577,451.219879 
	C518.613220,461.555573 514.653625,472.660248 514.808899,485.468323 
	C515.255249,522.288879 515.018982,559.117798 515.004761,595.943420 
	C515.003357,599.434448 514.732788,602.929382 514.487549,606.415466 
	C514.079651,612.212036 511.391602,616.878601 507.117432,620.681335 
	C495.319336,631.178223 473.122772,627.559387 466.220093,614.023804 
	C464.286407,610.231995 463.645630,606.199890 463.649780,601.947327 
	C463.691193,559.456116 463.738892,516.964600 463.599274,474.473785 
	C463.564850,463.997528 460.389893,454.417175 452.953583,446.714478 
	C441.994476,435.362793 419.213409,431.100372 406.167633,450.364532 
	C399.355621,460.423492 394.990784,471.268677 395.090973,483.913361 
	C395.398529,522.736267 395.166504,561.563171 395.236633,600.388367 
	C395.254089,610.041748 392.546326,618.369446 383.625336,623.113464 
	C374.195862,628.127808 364.282471,628.143738 354.934906,622.877625 
	C346.542206,618.149292 343.785126,610.079834 343.784851,600.849060 
	C343.783813,564.023315 343.781830,527.197571 343.777527,490.371826 
	C343.774872,467.543182 343.796661,444.714508 343.748932,421.885956 
	C343.727356,411.557312 347.159637,403.134827 357.097290,398.776031 
	C367.657684,394.144135 377.952881,394.999329 387.224701,402.124329 
	C392.901489,406.486664 394.697968,412.910706 395.240631,419.780426 
	C395.378571,421.526703 394.667023,423.482330 396.319489,425.037079 
	C398.913574,424.858185 399.045959,422.438568 399.948334,420.864990 
	C410.851288,401.852386 427.025391,391.022217 449.108185,391.064972 
	C475.436859,391.115906 493.713287,404.374146 504.953888,427.834259 
	C505.526794,429.029938 506.027832,430.264343 506.674133,431.418060 
	C506.878601,431.783051 507.447540,431.943848 508.072144,432.338715 
	C511.263763,428.992432 512.550781,424.582092 514.767822,420.775726 
	C536.743164,383.047089 595.767395,379.376587 620.492981,420.605652 
	C629.642517,435.862305 634.057129,452.504120 634.199280,470.037445 
	C634.557251,514.192139 634.347778,558.351501 634.328796,602.509033 
	C634.322266,617.741211 623.012634,628.010254 607.736633,626.754639 
	C603.051453,626.369507 598.475708,625.488831 594.398071,623.008789 
	C587.663513,618.912842 583.801758,613.021057 583.671326,604.994812 
	C583.581909,599.497742 583.642334,593.998230 583.635071,587.999878 
z"/>
<path fill="#000000" opacity="1.000000" stroke="none" 
	d="
M707.999878,455.403076 
	C694.672913,455.401123 681.816162,454.852844 669.027588,455.551544 
	C656.557434,456.232941 644.380066,446.731567 649.553345,428.485657 
	C651.233582,422.559845 654.954346,417.853516 659.284180,413.598083 
	C674.132690,399.004669 688.995117,384.425171 703.799561,369.787109 
	C705.442261,368.162872 706.976685,366.334290 708.159363,364.359680 
	C710.517578,360.422729 711.391418,356.131195 708.433228,352.180756 
	C705.373230,348.094330 700.941101,346.854889 695.970032,347.692108 
	C690.307007,348.645905 686.666016,352.572601 683.129761,356.620117 
	C677.321472,363.268127 669.934021,364.944336 661.827026,362.482513 
	C649.263977,358.667511 644.483459,344.762177 651.785889,333.859375 
	C659.453003,322.412079 670.752075,316.323425 683.792969,313.345215 
	C700.311829,309.572876 716.383118,310.710510 730.753784,320.508209 
	C754.752563,336.870331 757.176025,367.339661 736.314636,389.331573 
	C728.639648,397.422363 720.425537,405.001770 712.455261,412.812347 
	C711.167480,414.074280 709.525269,415.028381 708.878540,416.934723 
	C709.849304,419.192139 711.905212,418.587677 713.606995,418.608521 
	C719.936279,418.686035 726.268982,418.553864 732.596497,418.685547 
	C742.828613,418.898468 750.342773,426.759125 750.328918,437.063263 
	C750.315247,447.253876 742.609009,455.230896 732.487732,455.364227 
	C724.492981,455.469543 716.495911,455.396454 707.999878,455.403076 
z"/>
<path fill="#000000" opacity="1.000000" stroke="none" 
	d="
M678.142517,674.804138 
	C676.814331,678.352234 674.323608,678.959290 671.570740,677.867126 
	C669.080444,676.879211 668.363464,674.537476 669.142090,672.060364 
	C669.825684,669.885498 671.333740,668.152344 673.852173,668.407288 
	C677.350159,668.761414 678.514404,671.120422 678.142517,674.804138 
z"/>
</svg>